<svg width="88" height="31" version="1.1" viewBox="0 0 88 31" xml:space="preserve" xmlns="http://www.w3.org/2000/svg"><defs><clipPath id="clip"><path id="75-degree" d="m0 0h53.7l-19.4 31h-34.3z" shape-rendering="crispEdges"/></clipPath></defs><g id="pan" shape-rendering="crispEdges">
      <path id="pan-3" d="m0 0h88v31h-88z" fill="#1ab3ff"/>
      <path id="pan-2" d="m0 0h88v21h-88z" fill="#ffd700"/>
      <path id="pan-1" d="m0 0h88v10h-88z" fill="#ff1c8d"/>
    </g><g id="poly" shape-rendering="crispEdges" clip-path="url(#clip)">
      <path id="poly-3" d="m0 0h88v31h-88z" fill="#340c46"/>
      <path id="poly-2" d="m0 0h88v21h-88z" fill="#e50051"/>
      <path id="poly-1" d="m0 0h88v10h-88z" fill="#009fe3"/>
      <path id="poly-quad" d="m0 0h11l11 10-22 21z" fill="#fff"/>
      <path id="poly-heart" d="m8.8724 5.409c-1.2122 1.2122-1.2122 3.1785 0 4.3907l0.19384 0.19383s-0.20652 0.20659-0.20652 0.20659c-1.2122 1.2122-1.2122 3.1785 0 4.3907 1.2122 1.2122 3.1785 1.2122 4.3907 0l0.20652-0.20659 4.3907-4.3907 0.04008-0.04004-4.4191-4.3395-0.01166-0.011-0.19384-0.19383c-1.2122-1.2122-3.1785-1.2122-4.3907 0z" fill="#fcbf00"/>
    </g><g id="outset" shape-rendering="crispEdges">
      <path id="outset-2" d="m0 6e-8h2v29l-2 2zm0 0h88l-2 2h-86z" fill="#fff" fill-opacity=".66667"/>
      <path id="outset-1" d="m86 2 2-2v31h-2zm-84 27h86v2h-88z" fill="#000" fill-opacity=".66667"/>
    </g></svg>